<svg xmlns="http://www.w3.org/2000/svg" viewBox="0 0 600 600" width="600" height="600" role="img">
<defs><linearGradient id="g" x1="0" y1="0" x2="0" y2="1"><stop offset="0" stop-color="#f9d5e0"/><stop offset="1" stop-color="#ffffff"/></linearGradient></defs>
<rect width="600" height="600" fill="url(#g)"/>
<g stroke="#5f8f6c" stroke-width="7" stroke-linecap="round" fill="none">
<path d="M300 250 C 300 360, 300 400, 300 500"/>
<path d="M190 330 C 190 440, 300 480, 300 500"/>
<path d="M415 330 C 415 440, 300 480, 300 500"/>
<path d="M250 175 C 250 285, 300 325, 300 500"/>
<path d="M365 180 C 365 290, 300 330, 300 500"/>
</g>
<ellipse cx="357.0" cy="250.0" rx="42.3" ry="33.1" fill="#d34d76" transform="rotate(0.0 357.0 250.0)" opacity="0.95"/><ellipse cx="328.5" cy="299.4" rx="42.3" ry="33.1" fill="#d34d76" transform="rotate(60.0 328.5 299.4)" opacity="0.95"/><ellipse cx="271.5" cy="299.4" rx="42.3" ry="33.1" fill="#d34d76" transform="rotate(120.0 271.5 299.4)" opacity="0.95"/><ellipse cx="243.0" cy="250.0" rx="42.3" ry="33.1" fill="#d34d76" transform="rotate(180.0 243.0 250.0)" opacity="0.95"/><ellipse cx="271.5" cy="200.6" rx="42.3" ry="33.1" fill="#d34d76" transform="rotate(240.0 271.5 200.6)" opacity="0.95"/><ellipse cx="328.5" cy="200.6" rx="42.3" ry="33.1" fill="#d34d76" transform="rotate(300.0 328.5 200.6)" opacity="0.95"/><circle cx="300" cy="250" r="27.6" fill="#9c2550"/>
<ellipse cx="230.9" cy="330.0" rx="30.4" ry="23.8" fill="#d34d76" transform="rotate(0.0 230.9 330.0)" opacity="0.95"/><ellipse cx="210.5" cy="365.4" rx="30.4" ry="23.8" fill="#d34d76" transform="rotate(60.0 210.5 365.4)" opacity="0.95"/><ellipse cx="169.5" cy="365.4" rx="30.4" ry="23.8" fill="#d34d76" transform="rotate(120.0 169.5 365.4)" opacity="0.95"/><ellipse cx="149.1" cy="330.0" rx="30.4" ry="23.8" fill="#d34d76" transform="rotate(180.0 149.1 330.0)" opacity="0.95"/><ellipse cx="169.5" cy="294.6" rx="30.4" ry="23.8" fill="#d34d76" transform="rotate(240.0 169.5 294.6)" opacity="0.95"/><ellipse cx="210.5" cy="294.6" rx="30.4" ry="23.8" fill="#d34d76" transform="rotate(300.0 210.5 294.6)" opacity="0.95"/><circle cx="190" cy="330" r="19.8" fill="#9c2550"/>
<ellipse cx="458.4" cy="330.0" rx="32.2" ry="25.2" fill="#d34d76" transform="rotate(0.0 458.4 330.0)" opacity="0.95"/><ellipse cx="436.7" cy="367.6" rx="32.2" ry="25.2" fill="#d34d76" transform="rotate(60.0 436.7 367.6)" opacity="0.95"/><ellipse cx="393.3" cy="367.6" rx="32.2" ry="25.2" fill="#d34d76" transform="rotate(120.0 393.3 367.6)" opacity="0.95"/><ellipse cx="371.6" cy="330.0" rx="32.2" ry="25.2" fill="#d34d76" transform="rotate(180.0 371.6 330.0)" opacity="0.95"/><ellipse cx="393.3" cy="292.4" rx="32.2" ry="25.2" fill="#d34d76" transform="rotate(240.0 393.3 292.4)" opacity="0.95"/><ellipse cx="436.7" cy="292.4" rx="32.2" ry="25.2" fill="#d34d76" transform="rotate(300.0 436.7 292.4)" opacity="0.95"/><circle cx="415" cy="330" r="21.0" fill="#9c2550"/>
<ellipse cx="282.2" cy="175.0" rx="23.9" ry="18.7" fill="#d34d76" transform="rotate(0.0 282.2 175.0)" opacity="0.95"/><ellipse cx="266.1" cy="202.9" rx="23.9" ry="18.7" fill="#d34d76" transform="rotate(60.0 266.1 202.9)" opacity="0.95"/><ellipse cx="233.9" cy="202.9" rx="23.9" ry="18.7" fill="#d34d76" transform="rotate(120.0 233.9 202.9)" opacity="0.95"/><ellipse cx="217.8" cy="175.0" rx="23.9" ry="18.7" fill="#d34d76" transform="rotate(180.0 217.8 175.0)" opacity="0.95"/><ellipse cx="233.9" cy="147.1" rx="23.9" ry="18.7" fill="#d34d76" transform="rotate(240.0 233.9 147.1)" opacity="0.95"/><ellipse cx="266.1" cy="147.1" rx="23.9" ry="18.7" fill="#d34d76" transform="rotate(300.0 266.1 147.1)" opacity="0.95"/><circle cx="250" cy="175" r="15.6" fill="#9c2550"/>
<ellipse cx="394.8" cy="180.0" rx="22.1" ry="17.3" fill="#d34d76" transform="rotate(0.0 394.8 180.0)" opacity="0.95"/><ellipse cx="379.9" cy="205.8" rx="22.1" ry="17.3" fill="#d34d76" transform="rotate(60.0 379.9 205.8)" opacity="0.95"/><ellipse cx="350.1" cy="205.8" rx="22.1" ry="17.3" fill="#d34d76" transform="rotate(120.0 350.1 205.8)" opacity="0.95"/><ellipse cx="335.2" cy="180.0" rx="22.1" ry="17.3" fill="#d34d76" transform="rotate(180.0 335.2 180.0)" opacity="0.95"/><ellipse cx="350.1" cy="154.2" rx="22.1" ry="17.3" fill="#d34d76" transform="rotate(240.0 350.1 154.2)" opacity="0.95"/><ellipse cx="379.9" cy="154.2" rx="22.1" ry="17.3" fill="#d34d76" transform="rotate(300.0 379.9 154.2)" opacity="0.95"/><circle cx="365" cy="180" r="14.4" fill="#9c2550"/>
<path d="M225 470 L375 470 L352 566 L248 566 Z" fill="#9c2550" opacity="0.9"/>
<rect x="218" y="455" width="164" height="26" rx="13" fill="#d34d76"/>
</svg>